<mxfile host="app.diagrams.net" modified="2023-12-13T00:28:30.524Z" agent="Mozilla/5.0 (Windows NT 10.0; Win64; x64) AppleWebKit/537.36 (KHTML, like Gecko) Chrome/120.0.0.0 Safari/537.36" etag="TTW7UpKh6LFGRyA0EjK_" version="22.1.8" type="device">
  <diagram name="PÃ¡gina-1" id="tl_2m9fsEDjTrq0RmDLC">
    <mxGraphModel dx="794" dy="446" grid="1" gridSize="10" guides="1" tooltips="1" connect="1" arrows="1" fold="1" page="1" pageScale="1" pageWidth="827" pageHeight="1169" math="0" shadow="0">
      <root>
        <mxCell id="0" />
        <mxCell id="1" parent="0" />
        <mxCell id="awh_jBocMLvxY3TA2_ON-18" style="edgeStyle=orthogonalEdgeStyle;rounded=0;orthogonalLoop=1;jettySize=auto;html=1;exitX=0;exitY=0.5;exitDx=0;exitDy=0;entryX=1;entryY=0.5;entryDx=0;entryDy=0;endArrow=none;endFill=0;" edge="1" parent="1" source="awh_jBocMLvxY3TA2_ON-1" target="awh_jBocMLvxY3TA2_ON-7">
          <mxGeometry relative="1" as="geometry" />
        </mxCell>
        <mxCell id="awh_jBocMLvxY3TA2_ON-31" value="" style="edgeStyle=orthogonalEdgeStyle;rounded=0;orthogonalLoop=1;jettySize=auto;html=1;" edge="1" parent="1" source="awh_jBocMLvxY3TA2_ON-1" target="awh_jBocMLvxY3TA2_ON-30">
          <mxGeometry relative="1" as="geometry" />
        </mxCell>
        <mxCell id="awh_jBocMLvxY3TA2_ON-46" value="" style="edgeStyle=orthogonalEdgeStyle;rounded=0;orthogonalLoop=1;jettySize=auto;html=1;" edge="1" parent="1" source="awh_jBocMLvxY3TA2_ON-1" target="awh_jBocMLvxY3TA2_ON-45">
          <mxGeometry relative="1" as="geometry" />
        </mxCell>
        <mxCell id="awh_jBocMLvxY3TA2_ON-1" value="&lt;font style=&quot;font-size: 18px;&quot;&gt;carreras&lt;/font&gt;" style="rounded=0;whiteSpace=wrap;html=1;" vertex="1" parent="1">
          <mxGeometry x="230" y="70" width="80" height="40" as="geometry" />
        </mxCell>
        <mxCell id="awh_jBocMLvxY3TA2_ON-34" value="" style="edgeStyle=orthogonalEdgeStyle;rounded=0;orthogonalLoop=1;jettySize=auto;html=1;" edge="1" parent="1" source="awh_jBocMLvxY3TA2_ON-4" target="awh_jBocMLvxY3TA2_ON-33">
          <mxGeometry relative="1" as="geometry" />
        </mxCell>
        <mxCell id="awh_jBocMLvxY3TA2_ON-36" value="" style="edgeStyle=orthogonalEdgeStyle;rounded=0;orthogonalLoop=1;jettySize=auto;html=1;" edge="1" parent="1" source="awh_jBocMLvxY3TA2_ON-4" target="awh_jBocMLvxY3TA2_ON-33">
          <mxGeometry relative="1" as="geometry" />
        </mxCell>
        <mxCell id="awh_jBocMLvxY3TA2_ON-37" value="" style="edgeStyle=orthogonalEdgeStyle;rounded=0;orthogonalLoop=1;jettySize=auto;html=1;" edge="1" parent="1" source="awh_jBocMLvxY3TA2_ON-4" target="awh_jBocMLvxY3TA2_ON-33">
          <mxGeometry relative="1" as="geometry" />
        </mxCell>
        <mxCell id="awh_jBocMLvxY3TA2_ON-39" style="edgeStyle=orthogonalEdgeStyle;rounded=0;orthogonalLoop=1;jettySize=auto;html=1;exitX=1;exitY=0.5;exitDx=0;exitDy=0;entryX=0;entryY=0.5;entryDx=0;entryDy=0;" edge="1" parent="1" source="awh_jBocMLvxY3TA2_ON-4" target="awh_jBocMLvxY3TA2_ON-38">
          <mxGeometry relative="1" as="geometry" />
        </mxCell>
        <mxCell id="awh_jBocMLvxY3TA2_ON-41" style="edgeStyle=orthogonalEdgeStyle;rounded=0;orthogonalLoop=1;jettySize=auto;html=1;exitX=1;exitY=0.5;exitDx=0;exitDy=0;entryX=0;entryY=0.5;entryDx=0;entryDy=0;" edge="1" parent="1" source="awh_jBocMLvxY3TA2_ON-4" target="awh_jBocMLvxY3TA2_ON-40">
          <mxGeometry relative="1" as="geometry" />
        </mxCell>
        <mxCell id="awh_jBocMLvxY3TA2_ON-4" value="&lt;font style=&quot;font-size: 18px;&quot;&gt;tipos_carreras&lt;/font&gt;" style="rounded=0;whiteSpace=wrap;html=1;" vertex="1" parent="1">
          <mxGeometry x="510" y="70" width="140" height="40" as="geometry" />
        </mxCell>
        <mxCell id="awh_jBocMLvxY3TA2_ON-49" value="" style="edgeStyle=orthogonalEdgeStyle;rounded=0;orthogonalLoop=1;jettySize=auto;html=1;" edge="1" parent="1" source="awh_jBocMLvxY3TA2_ON-5" target="awh_jBocMLvxY3TA2_ON-48">
          <mxGeometry relative="1" as="geometry" />
        </mxCell>
        <mxCell id="awh_jBocMLvxY3TA2_ON-52" style="edgeStyle=orthogonalEdgeStyle;rounded=0;orthogonalLoop=1;jettySize=auto;html=1;exitX=0.5;exitY=1;exitDx=0;exitDy=0;" edge="1" parent="1" source="awh_jBocMLvxY3TA2_ON-5" target="awh_jBocMLvxY3TA2_ON-51">
          <mxGeometry relative="1" as="geometry" />
        </mxCell>
        <mxCell id="awh_jBocMLvxY3TA2_ON-5" value="&lt;span style=&quot;font-size: 18px;&quot;&gt;paises&lt;/span&gt;" style="rounded=0;whiteSpace=wrap;html=1;" vertex="1" parent="1">
          <mxGeometry x="230" y="330" width="80" height="40" as="geometry" />
        </mxCell>
        <mxCell id="awh_jBocMLvxY3TA2_ON-7" value="&lt;u&gt;tipo_carrera&lt;/u&gt;" style="ellipse;whiteSpace=wrap;html=1;" vertex="1" parent="1">
          <mxGeometry x="90" y="90" width="70" height="40" as="geometry" />
        </mxCell>
        <mxCell id="awh_jBocMLvxY3TA2_ON-20" style="edgeStyle=orthogonalEdgeStyle;rounded=0;orthogonalLoop=1;jettySize=auto;html=1;exitX=1;exitY=0.5;exitDx=0;exitDy=0;entryX=0;entryY=0.5;entryDx=0;entryDy=0;" edge="1" parent="1" source="awh_jBocMLvxY3TA2_ON-9" target="awh_jBocMLvxY3TA2_ON-1">
          <mxGeometry relative="1" as="geometry" />
        </mxCell>
        <mxCell id="awh_jBocMLvxY3TA2_ON-9" value="nombre" style="ellipse;whiteSpace=wrap;html=1;" vertex="1" parent="1">
          <mxGeometry x="90" y="40" width="70" height="40" as="geometry" />
        </mxCell>
        <mxCell id="awh_jBocMLvxY3TA2_ON-21" style="edgeStyle=orthogonalEdgeStyle;rounded=0;orthogonalLoop=1;jettySize=auto;html=1;exitX=1;exitY=0.5;exitDx=0;exitDy=0;entryX=0;entryY=0.5;entryDx=0;entryDy=0;" edge="1" parent="1" source="awh_jBocMLvxY3TA2_ON-10" target="awh_jBocMLvxY3TA2_ON-1">
          <mxGeometry relative="1" as="geometry" />
        </mxCell>
        <mxCell id="awh_jBocMLvxY3TA2_ON-10" value="&lt;u&gt;&lt;b&gt;carrera_id&lt;/b&gt;&lt;/u&gt;" style="ellipse;whiteSpace=wrap;html=1;" vertex="1" parent="1">
          <mxGeometry x="90" width="70" height="40" as="geometry" />
        </mxCell>
        <mxCell id="awh_jBocMLvxY3TA2_ON-28" style="edgeStyle=orthogonalEdgeStyle;rounded=0;orthogonalLoop=1;jettySize=auto;html=1;exitX=1;exitY=0.5;exitDx=0;exitDy=0;entryX=0;entryY=0.5;entryDx=0;entryDy=0;" edge="1" parent="1" source="awh_jBocMLvxY3TA2_ON-11" target="awh_jBocMLvxY3TA2_ON-1">
          <mxGeometry relative="1" as="geometry" />
        </mxCell>
        <mxCell id="awh_jBocMLvxY3TA2_ON-11" value="lugar" style="ellipse;whiteSpace=wrap;html=1;" vertex="1" parent="1">
          <mxGeometry x="90" y="290" width="70" height="40" as="geometry" />
        </mxCell>
        <mxCell id="awh_jBocMLvxY3TA2_ON-25" style="edgeStyle=orthogonalEdgeStyle;rounded=0;orthogonalLoop=1;jettySize=auto;html=1;exitX=1;exitY=0.5;exitDx=0;exitDy=0;entryX=0;entryY=0.5;entryDx=0;entryDy=0;" edge="1" parent="1" source="awh_jBocMLvxY3TA2_ON-12" target="awh_jBocMLvxY3TA2_ON-1">
          <mxGeometry relative="1" as="geometry" />
        </mxCell>
        <mxCell id="awh_jBocMLvxY3TA2_ON-12" value="altitud" style="ellipse;whiteSpace=wrap;html=1;" vertex="1" parent="1">
          <mxGeometry x="90" y="250" width="70" height="40" as="geometry" />
        </mxCell>
        <mxCell id="awh_jBocMLvxY3TA2_ON-24" style="edgeStyle=orthogonalEdgeStyle;rounded=0;orthogonalLoop=1;jettySize=auto;html=1;exitX=1;exitY=0.5;exitDx=0;exitDy=0;entryX=0;entryY=0.5;entryDx=0;entryDy=0;" edge="1" parent="1" source="awh_jBocMLvxY3TA2_ON-13" target="awh_jBocMLvxY3TA2_ON-1">
          <mxGeometry relative="1" as="geometry" />
        </mxCell>
        <mxCell id="awh_jBocMLvxY3TA2_ON-13" value="mejor_tiempo" style="ellipse;whiteSpace=wrap;html=1;" vertex="1" parent="1">
          <mxGeometry x="90" y="210" width="70" height="40" as="geometry" />
        </mxCell>
        <mxCell id="awh_jBocMLvxY3TA2_ON-22" style="edgeStyle=orthogonalEdgeStyle;rounded=0;orthogonalLoop=1;jettySize=auto;html=1;exitX=1;exitY=0.5;exitDx=0;exitDy=0;entryX=0;entryY=0.5;entryDx=0;entryDy=0;" edge="1" parent="1" source="awh_jBocMLvxY3TA2_ON-14" target="awh_jBocMLvxY3TA2_ON-1">
          <mxGeometry relative="1" as="geometry" />
        </mxCell>
        <mxCell id="awh_jBocMLvxY3TA2_ON-14" value="fecha" style="ellipse;whiteSpace=wrap;html=1;" vertex="1" parent="1">
          <mxGeometry x="90" y="130" width="70" height="40" as="geometry" />
        </mxCell>
        <mxCell id="awh_jBocMLvxY3TA2_ON-23" style="edgeStyle=orthogonalEdgeStyle;rounded=0;orthogonalLoop=1;jettySize=auto;html=1;exitX=1;exitY=0.5;exitDx=0;exitDy=0;entryX=0;entryY=0.5;entryDx=0;entryDy=0;" edge="1" parent="1" source="awh_jBocMLvxY3TA2_ON-15" target="awh_jBocMLvxY3TA2_ON-1">
          <mxGeometry relative="1" as="geometry" />
        </mxCell>
        <mxCell id="awh_jBocMLvxY3TA2_ON-15" value="tiempo" style="ellipse;whiteSpace=wrap;html=1;" vertex="1" parent="1">
          <mxGeometry x="90" y="170" width="70" height="40" as="geometry" />
        </mxCell>
        <mxCell id="awh_jBocMLvxY3TA2_ON-29" style="edgeStyle=orthogonalEdgeStyle;rounded=0;orthogonalLoop=1;jettySize=auto;html=1;exitX=1;exitY=0.5;exitDx=0;exitDy=0;entryX=0;entryY=0.5;entryDx=0;entryDy=0;" edge="1" parent="1" source="awh_jBocMLvxY3TA2_ON-17" target="awh_jBocMLvxY3TA2_ON-1">
          <mxGeometry relative="1" as="geometry" />
        </mxCell>
        <mxCell id="awh_jBocMLvxY3TA2_ON-17" value="&lt;u&gt;pais&lt;/u&gt;" style="ellipse;whiteSpace=wrap;html=1;" vertex="1" parent="1">
          <mxGeometry x="90" y="330" width="70" height="40" as="geometry" />
        </mxCell>
        <mxCell id="awh_jBocMLvxY3TA2_ON-32" value="" style="edgeStyle=orthogonalEdgeStyle;rounded=0;orthogonalLoop=1;jettySize=auto;html=1;" edge="1" parent="1" source="awh_jBocMLvxY3TA2_ON-30" target="awh_jBocMLvxY3TA2_ON-4">
          <mxGeometry relative="1" as="geometry" />
        </mxCell>
        <mxCell id="awh_jBocMLvxY3TA2_ON-30" value="&lt;font style=&quot;font-size: 18px;&quot;&gt;pertenece&lt;/font&gt;" style="rhombus;whiteSpace=wrap;html=1;rounded=0;" vertex="1" parent="1">
          <mxGeometry x="366" y="45" width="96" height="90" as="geometry" />
        </mxCell>
        <mxCell id="awh_jBocMLvxY3TA2_ON-33" value="&lt;u&gt;&lt;b&gt;tipo_carrera&lt;/b&gt;&lt;/u&gt;" style="ellipse;whiteSpace=wrap;html=1;rounded=0;" vertex="1" parent="1">
          <mxGeometry x="700" y="40" width="80" height="50" as="geometry" />
        </mxCell>
        <mxCell id="awh_jBocMLvxY3TA2_ON-38" value="descripcion" style="ellipse;whiteSpace=wrap;html=1;rounded=0;" vertex="1" parent="1">
          <mxGeometry x="700" y="100" width="80" height="50" as="geometry" />
        </mxCell>
        <mxCell id="awh_jBocMLvxY3TA2_ON-40" value="distancia" style="ellipse;whiteSpace=wrap;html=1;rounded=0;" vertex="1" parent="1">
          <mxGeometry x="700" y="160" width="80" height="50" as="geometry" />
        </mxCell>
        <mxCell id="awh_jBocMLvxY3TA2_ON-43" value="1" style="text;html=1;align=center;verticalAlign=middle;resizable=0;points=[];autosize=1;strokeColor=none;fillColor=none;" vertex="1" parent="1">
          <mxGeometry x="335" y="58" width="30" height="30" as="geometry" />
        </mxCell>
        <mxCell id="awh_jBocMLvxY3TA2_ON-44" value="1" style="text;html=1;align=center;verticalAlign=middle;resizable=0;points=[];autosize=1;strokeColor=none;fillColor=none;" vertex="1" parent="1">
          <mxGeometry x="462" y="58" width="30" height="30" as="geometry" />
        </mxCell>
        <mxCell id="awh_jBocMLvxY3TA2_ON-47" style="edgeStyle=orthogonalEdgeStyle;rounded=0;orthogonalLoop=1;jettySize=auto;html=1;exitX=0.5;exitY=1;exitDx=0;exitDy=0;entryX=0.5;entryY=0;entryDx=0;entryDy=0;" edge="1" parent="1" source="awh_jBocMLvxY3TA2_ON-45" target="awh_jBocMLvxY3TA2_ON-5">
          <mxGeometry relative="1" as="geometry" />
        </mxCell>
        <mxCell id="awh_jBocMLvxY3TA2_ON-45" value="&lt;font style=&quot;font-size: 18px;&quot;&gt;se corre&lt;/font&gt;" style="rhombus;whiteSpace=wrap;html=1;rounded=0;" vertex="1" parent="1">
          <mxGeometry x="230" y="170" width="80" height="80" as="geometry" />
        </mxCell>
        <mxCell id="awh_jBocMLvxY3TA2_ON-48" value="&lt;u&gt;&lt;b&gt;pais_id&lt;/b&gt;&lt;/u&gt;" style="ellipse;whiteSpace=wrap;html=1;rounded=0;" vertex="1" parent="1">
          <mxGeometry x="140" y="440" width="90" height="40" as="geometry" />
        </mxCell>
        <mxCell id="awh_jBocMLvxY3TA2_ON-51" value="nombe" style="ellipse;whiteSpace=wrap;html=1;rounded=0;" vertex="1" parent="1">
          <mxGeometry x="300" y="440" width="90" height="40" as="geometry" />
        </mxCell>
        <mxCell id="awh_jBocMLvxY3TA2_ON-53" value="&lt;span style=&quot;color: rgb(0, 0, 0); font-family: Helvetica; font-size: 12px; font-style: normal; font-variant-ligatures: normal; font-variant-caps: normal; font-weight: 400; letter-spacing: normal; orphans: 2; text-align: center; text-indent: 0px; text-transform: none; widows: 2; word-spacing: 0px; -webkit-text-stroke-width: 0px; background-color: rgb(251, 251, 251); text-decoration-thickness: initial; text-decoration-style: initial; text-decoration-color: initial; float: none; display: inline !important;&quot;&gt;1&lt;/span&gt;" style="text;whiteSpace=wrap;html=1;" vertex="1" parent="1">
          <mxGeometry x="300" y="280" width="40" height="40" as="geometry" />
        </mxCell>
        <mxCell id="awh_jBocMLvxY3TA2_ON-54" value="&lt;span style=&quot;color: rgb(0, 0, 0); font-family: Helvetica; font-size: 12px; font-style: normal; font-variant-ligatures: normal; font-variant-caps: normal; font-weight: 400; letter-spacing: normal; orphans: 2; text-align: center; text-indent: 0px; text-transform: none; widows: 2; word-spacing: 0px; -webkit-text-stroke-width: 0px; background-color: rgb(251, 251, 251); text-decoration-thickness: initial; text-decoration-style: initial; text-decoration-color: initial; float: none; display: inline !important;&quot;&gt;1&lt;/span&gt;" style="text;whiteSpace=wrap;html=1;" vertex="1" parent="1">
          <mxGeometry x="290" y="120" width="40" height="40" as="geometry" />
        </mxCell>
        <mxCell id="awh_jBocMLvxY3TA2_ON-56" style="edgeStyle=orthogonalEdgeStyle;rounded=0;orthogonalLoop=1;jettySize=auto;html=1;exitX=1;exitY=0.5;exitDx=0;exitDy=0;entryX=0;entryY=0.5;entryDx=0;entryDy=0;" edge="1" parent="1" source="awh_jBocMLvxY3TA2_ON-55" target="awh_jBocMLvxY3TA2_ON-1">
          <mxGeometry relative="1" as="geometry" />
        </mxCell>
        <mxCell id="awh_jBocMLvxY3TA2_ON-55" value="&lt;u&gt;pais&lt;/u&gt;" style="ellipse;whiteSpace=wrap;html=1;" vertex="1" parent="1">
          <mxGeometry x="90" y="370" width="70" height="40" as="geometry" />
        </mxCell>
      </root>
    </mxGraphModel>
  </diagram>
</mxfile>
